<svg width="57" height="63" viewBox="0 0 57 63" fill="none" xmlns="http://www.w3.org/2000/svg">
<path d="M28.4405 63C44.1477 63 56.881 50.2668 56.881 34.5595C56.881 18.8523 44.1477 6.11902 28.4405 6.11902C12.7332 6.11902 0 18.8523 0 34.5595C0 50.2668 12.7332 63 28.4405 63Z" fill="#5B9CF9"/>
<mask id="mask0_253_4061" style="mask-type:luminance" maskUnits="userSpaceOnUse" x="0" y="0" width="57" height="63">
<path d="M56.881 34.5595C56.881 50.2669 44.1478 63 28.4405 63C12.7332 63 0 50.2669 0 34.5595C0 18.8522 12.7332 0 28.4405 0C44.1478 0 56.881 18.8522 56.881 34.5595Z" fill="white"/>
</mask>
<g mask="url(#mask0_253_4061)">
<path d="M6.09863 63H52.5585L49.9873 51.4311C48.8225 46.1904 44.1741 42.4616 38.8055 42.4616H19.8514C14.4828 42.4616 9.83438 46.1904 8.66956 51.4311L6.09863 63Z" fill="#EED4E2"/>
<mask id="mask1_253_4061" style="mask-type:luminance" maskUnits="userSpaceOnUse" x="6" y="42" width="47" height="21">
<path d="M6.09961 62.9999H52.5595L49.9883 51.431C48.8235 46.1903 44.1751 42.4615 38.8065 42.4615H19.8524C14.4837 42.4615 9.83535 46.1903 8.67053 51.431L6.09961 62.9999Z" fill="white"/>
</mask>
<g mask="url(#mask1_253_4061)">
<path d="M25.2528 41.6213L27.559 64.117L2.32227 65.9507L7.68307 41.6213H25.2528Z" fill="#365AD8"/>
</g>
<mask id="mask2_253_4061" style="mask-type:luminance" maskUnits="userSpaceOnUse" x="6" y="42" width="47" height="21">
<path d="M6.09961 62.9999H52.5595L49.9883 51.431C48.8235 46.1903 44.1751 42.4615 38.8065 42.4615H19.8524C14.4837 42.4615 9.83535 46.1903 8.67053 51.431L6.09961 62.9999Z" fill="white"/>
</mask>
<g mask="url(#mask2_253_4061)">
<path d="M33.3423 41.6213L31.0361 64.117L56.2729 65.9507L50.9121 41.6213H33.3423Z" fill="#365AD8"/>
</g>
<mask id="mask3_253_4061" style="mask-type:luminance" maskUnits="userSpaceOnUse" x="6" y="42" width="47" height="21">
<path d="M6.09961 62.9999H52.5595L49.9883 51.431C48.8235 46.1903 44.1751 42.4615 38.8065 42.4615H19.8524C14.4837 42.4615 9.83535 46.1903 8.67053 51.431L6.09961 62.9999Z" fill="white"/>
</mask>
<g mask="url(#mask3_253_4061)">
<path d="M23.3842 40.7802C21.1384 43.4326 19.3209 46.447 18.0234 49.6712C20.6586 49.9993 23.2622 50.2948 25.8778 50.7519" stroke="#2A0873" stroke-width="0.4189" stroke-miterlimit="10" stroke-linecap="round" stroke-linejoin="round"/>
<path d="M21.2261 50.1643C20.443 51.0979 19.7342 52.0935 19.1084 53.1391C21.0998 57.1298 23.2991 60.9945 25.5592 64.8392" stroke="#2A0873" stroke-width="0.4189" stroke-miterlimit="10" stroke-linecap="round" stroke-linejoin="round"/>
</g>
<mask id="mask4_253_4061" style="mask-type:luminance" maskUnits="userSpaceOnUse" x="6" y="42" width="47" height="21">
<path d="M6.09961 62.9999H52.5595L49.9883 51.431C48.8235 46.1903 44.1751 42.4615 38.8065 42.4615H19.8524C14.4837 42.4615 9.83535 46.1903 8.67053 51.431L6.09961 62.9999Z" fill="white"/>
</mask>
<g mask="url(#mask4_253_4061)">
<path d="M35.1267 40.7802C37.3725 43.4326 39.19 46.447 40.4875 49.6712C37.8523 49.9993 35.2487 50.2948 32.6328 50.7519" stroke="#2A0873" stroke-width="0.4189" stroke-miterlimit="10" stroke-linecap="round" stroke-linejoin="round"/>
<path d="M37.2855 50.1643C38.0686 51.0979 38.7774 52.0935 39.4032 53.1391C37.4118 57.1298 35.2125 60.9945 32.9521 64.8392" stroke="#2A0873" stroke-width="0.4189" stroke-miterlimit="10" stroke-linecap="round" stroke-linejoin="round"/>
</g>
<mask id="mask5_253_4061" style="mask-type:luminance" maskUnits="userSpaceOnUse" x="6" y="42" width="47" height="21">
<path d="M6.09961 62.9999H52.5595L49.9883 51.431C48.8235 46.1903 44.1751 42.4615 38.8065 42.4615H19.8524C14.4837 42.4615 9.83535 46.1903 8.67053 51.431L6.09961 62.9999Z" fill="white"/>
</mask>
<g mask="url(#mask5_253_4061)">
<path d="M47.2186 54.0986H40.917V55.6111H47.2186V54.0986Z" fill="#EED4E2"/>
</g>
<mask id="mask6_253_4061" style="mask-type:luminance" maskUnits="userSpaceOnUse" x="6" y="42" width="47" height="21">
<path d="M6.09961 62.9999H52.5595L49.9883 51.431C48.8235 46.1903 44.1751 42.4615 38.8065 42.4615H19.8524C14.4837 42.4615 9.83535 46.1903 8.67053 51.431L6.09961 62.9999Z" fill="white"/>
</mask>
<g mask="url(#mask6_253_4061)">
<path d="M12.71 46.376C13.3062 45.6488 14.0764 45.0649 14.9377 44.6873" stroke="#EED4E2" stroke-width="0.4189" stroke-miterlimit="10" stroke-linecap="round"/>
</g>
<mask id="mask7_253_4061" style="mask-type:luminance" maskUnits="userSpaceOnUse" x="6" y="42" width="47" height="21">
<path d="M6.09961 62.9999H52.5595L49.9883 51.431C48.8235 46.1903 44.1751 42.4615 38.8065 42.4615H19.8524C14.4837 42.4615 9.83535 46.1903 8.67053 51.431L6.09961 62.9999Z" fill="white"/>
</mask>
<g mask="url(#mask7_253_4061)">
<path d="M15.8545 44.2718C16.391 44.0282 16.9478 43.8297 17.5172 43.6786" stroke="#EED4E2" stroke-width="0.4189" stroke-miterlimit="10" stroke-linecap="round"/>
</g>
<path d="M25.2529 42.4616L29.3285 47.0988L33.4042 42.4616V37.1578H25.2529V42.4616Z" fill="#D36933"/>
<path d="M29.3277 50.4732C30.2659 50.4732 31.0265 49.7126 31.0265 48.7744C31.0265 47.8362 30.2659 47.0756 29.3277 47.0756C28.3895 47.0756 27.6289 47.8362 27.6289 48.7744C27.6289 49.7126 28.3895 50.4732 29.3277 50.4732Z" fill="white"/>
<path d="M29.3282 48.7976L31.1499 63H27.3359L29.3282 48.7976Z" fill="white"/>
<path d="M18.743 24.7195C18.743 26.0412 19.4529 28.451 18.5791 29.3866C18.2068 29.7851 16.3743 29.6932 15.6091 29.4578C13.4383 28.7901 12.2031 26.8366 12.2031 24.9515C12.2031 23.0665 13.4445 21.3063 15.3295 21.3063C19.015 21.3063 18.743 22.8344 18.743 24.7195Z" fill="#D36933"/>
<path d="M14.2793 23.2282C15.6893 24.2082 16.9862 25.3509 18.1357 26.6266" stroke="#2A0873" stroke-width="0.4189" stroke-miterlimit="10" stroke-linecap="round"/>
<path d="M15.002 26.7383C15.3279 26.0404 15.768 25.3962 16.2997 24.8387" stroke="#2A0873" stroke-width="0.4189" stroke-miterlimit="10" stroke-linecap="round"/>
<path d="M39.9117 24.7195C39.9117 26.0412 39.2018 28.451 40.0756 29.3866C40.4479 29.7851 42.2804 29.6932 43.0456 29.4578C45.2163 28.7901 46.4515 26.8366 46.4515 24.9515C46.4515 23.0665 45.2102 21.3063 43.3251 21.3063C39.6397 21.3063 39.9117 22.8344 39.9117 24.7195Z" fill="#D36933"/>
<path d="M44.3759 23.2282C42.9659 24.2082 41.669 25.3509 40.5195 26.6266" stroke="#2A0873" stroke-width="0.4189" stroke-miterlimit="10" stroke-linecap="round"/>
<path d="M43.6532 26.7383C43.3273 26.0404 42.8872 25.3962 42.3555 24.8387" stroke="#2A0873" stroke-width="0.4189" stroke-miterlimit="10" stroke-linecap="round"/>
<path d="M41.4217 17.2115C41.4217 23.891 42.4112 38.7421 29.3278 38.7421C16.2442 38.7421 17.2339 23.891 17.2339 17.2115C17.2339 10.5323 22.6486 5.11755 29.3278 5.11755C36.007 5.11755 41.4217 10.5323 41.4217 17.2115Z" fill="#D36933"/>
<mask id="mask8_253_4061" style="mask-type:luminance" maskUnits="userSpaceOnUse" x="17" y="5" width="25" height="34">
<path d="M41.4198 17.2115C41.4198 23.891 42.4092 38.7421 29.3258 38.7421C16.2422 38.7421 17.2319 23.891 17.2319 17.2115C17.2319 10.5323 22.6466 5.11755 29.3258 5.11755C36.0051 5.11755 41.4198 10.5323 41.4198 17.2115Z" fill="white"/>
</mask>
<g mask="url(#mask8_253_4061)">
<path d="M17.1836 25.6473C18.7112 27.7228 21.3184 29.395 23.5891 30.2236C23.5891 30.2236 25.742 27.0835 29.5788 27.0835C33.4157 27.0835 34.7316 30.2451 34.7316 30.2451C34.7316 30.2451 37.7167 28.9267 39.4361 26.9615C41.1304 25.0251 41.3432 24.1038 41.3432 24.1038L43.0032 39.7787L20.2631 40.5445L17.2593 31.6258L17.1836 25.6473Z" fill="#2A0873"/>
</g>
<mask id="mask9_253_4061" style="mask-type:luminance" maskUnits="userSpaceOnUse" x="17" y="5" width="25" height="34">
<path d="M41.4198 17.2115C41.4198 23.891 42.4092 38.7421 29.3258 38.7421C16.2422 38.7421 17.2319 23.891 17.2319 17.2115C17.2319 10.5323 22.6466 5.11755 29.3258 5.11755C36.0051 5.11755 41.4198 10.5323 41.4198 17.2115Z" fill="white"/>
</mask>
<g mask="url(#mask9_253_4061)">
<path d="M25.251 30.7439C25.251 30.7439 26.6959 27.7396 29.3266 27.706C31.9573 27.6722 33.4022 30.6121 33.4022 30.6121C33.4022 30.6121 32.4387 31.7434 29.5788 31.7434C26.7188 31.7431 25.251 30.7439 25.251 30.7439Z" fill="#D36933"/>
</g>
<mask id="mask10_253_4061" style="mask-type:luminance" maskUnits="userSpaceOnUse" x="17" y="5" width="25" height="34">
<path d="M41.4198 17.2115C41.4198 23.891 42.4092 38.7421 29.3258 38.7421C16.2422 38.7421 17.2319 23.891 17.2319 17.2115C17.2319 10.5323 22.6466 5.11755 29.3258 5.11755C36.0051 5.11755 41.4198 10.5323 41.4198 17.2115Z" fill="white"/>
</mask>
<g mask="url(#mask10_253_4061)">
<path d="M20.9829 30.7925C20.9145 31.0118 20.846 31.2313 20.7773 31.4505" stroke="#365AD8" stroke-width="0.4189" stroke-miterlimit="10" stroke-linecap="round"/>
<path d="M22.7078 32.8896C22.6399 33.1365 22.5718 33.3833 22.5039 33.6302" stroke="#365AD8" stroke-width="0.4189" stroke-miterlimit="10" stroke-linecap="round"/>
<path d="M24.2352 35.4818C24.1936 35.701 24.152 35.9202 24.1104 36.1394" stroke="#365AD8" stroke-width="0.4189" stroke-miterlimit="10" stroke-linecap="round"/>
<path d="M24.6846 32.1911C24.6846 32.3556 24.6846 32.5201 24.6846 32.6846" stroke="#365AD8" stroke-width="0.4189" stroke-miterlimit="10" stroke-linecap="round"/>
<path d="M27.3164 35.5376C27.3164 35.7998 27.3164 36.0623 27.3164 36.3246" stroke="#365AD8" stroke-width="0.421944" stroke-miterlimit="10" stroke-linecap="round"/>
<path d="M29.7617 33.7559C29.8061 33.9594 29.8192 34.17 29.8005 34.3775" stroke="#365AD8" stroke-width="0.421944" stroke-miterlimit="10" stroke-linecap="round"/>
<path d="M32.6201 32.6374C32.6916 32.8926 32.719 33.1605 32.7005 33.4249" stroke="#365AD8" stroke-width="0.421944" stroke-miterlimit="10" stroke-linecap="round"/>
<path d="M33.0322 35.6619C33.1171 35.8007 33.1744 35.9565 33.1995 36.1171" stroke="#365AD8" stroke-width="0.421944" stroke-miterlimit="10" stroke-linecap="round"/>
<path d="M35.4727 33.3032C35.5975 33.5238 35.7223 33.7444 35.8469 33.965" stroke="#365AD8" stroke-width="0.421944" stroke-miterlimit="10" stroke-linecap="round"/>
<path d="M36.5537 30.4839C36.7221 30.6839 36.862 30.9079 36.9679 31.1466" stroke="#365AD8" stroke-width="0.421944" stroke-miterlimit="10" stroke-linecap="round"/>
<path d="M38.5 31.768C38.5553 31.9199 38.6106 32.0718 38.6656 32.2238" stroke="#365AD8" stroke-width="0.421944" stroke-miterlimit="10" stroke-linecap="round"/>
</g>
<path d="M17.1572 21.3798C17.1946 23.1341 17.5812 25.4188 17.8319 27.1558" stroke="#2A0873" stroke-width="0.4189" stroke-miterlimit="10" stroke-linecap="round"/>
<path d="M41.4152 21.3798C41.3842 22.8233 41.2808 24.2654 41.1055 25.6986" stroke="#2A0873" stroke-width="0.4189" stroke-miterlimit="10" stroke-linecap="round"/>
<path d="M23.9227 23.4698C24.7731 23.4698 25.4626 22.7804 25.4626 21.93C25.4626 21.0795 24.7731 20.3901 23.9227 20.3901C23.0722 20.3901 22.3828 21.0795 22.3828 21.93C22.3828 22.7804 23.0722 23.4698 23.9227 23.4698Z" fill="#2A0873"/>
<path d="M34.7332 23.4698C35.5837 23.4698 36.2731 22.7804 36.2731 21.93C36.2731 21.0795 35.5837 20.3901 34.7332 20.3901C33.8828 20.3901 33.1934 21.0795 33.1934 21.93C33.1934 22.7804 33.8828 23.4698 34.7332 23.4698Z" fill="#2A0873"/>
<g opacity="0.5">
<path d="M22.0516 27.706C22.902 27.706 23.5915 27.0165 23.5915 26.1661C23.5915 25.3156 22.902 24.6262 22.0516 24.6262C21.2011 24.6262 20.5117 25.3156 20.5117 26.1661C20.5117 27.0165 21.2011 27.706 22.0516 27.706Z" fill="#D36933"/>
<path d="M36.6043 27.706C37.4548 27.706 38.1442 27.0165 38.1442 26.1661C38.1442 25.3156 37.4548 24.6262 36.6043 24.6262C35.7539 24.6262 35.0645 25.3156 35.0645 26.1661C35.0645 27.0165 35.7539 27.706 36.6043 27.706Z" fill="#D36933"/>
</g>
<path d="M26.3654 18.486C24.372 18.1397 22.2613 18.8538 20.7354 20.3901C21.3039 19.5213 21.8937 18.6396 22.6891 18.0624C23.4845 17.4851 24.4197 17.1369 25.3547 17.2003C25.6557 17.2207 25.9702 17.2913 26.2 17.5189C26.4302 17.7468 26.5343 18.1945 26.3654 18.486Z" fill="#2A0873"/>
<path d="M32.2913 18.486C34.2847 18.1397 36.3954 18.8538 37.9213 20.3901C37.3527 19.5213 36.7629 18.6396 35.9675 18.0624C35.1722 17.4851 34.2369 17.1369 33.3019 17.2003C33.0009 17.2207 32.6864 17.2913 32.4566 17.5189C32.2265 17.7468 32.1226 18.1945 32.2913 18.486Z" fill="#2A0873"/>
<path d="M27.0869 28.3618C27.0869 28.3618 27.832 30.1586 29.5288 30.1586C31.2256 30.1586 32.0735 28.3618 32.0735 28.3618" stroke="#2A0873" stroke-width="0.4189" stroke-miterlimit="10" stroke-linecap="round"/>
<path d="M29.9121 20.3336C30.3148 22.2449 31.0205 24.092 31.9946 25.7849C31.5372 26.4345 30.796 27.0014 30.0166 27.1555" stroke="#2A0873" stroke-width="0.4189" stroke-miterlimit="10" stroke-linecap="round"/>
<path d="M18.508 7.70794C18.508 7.70794 19.2967 4.47404 20.0066 4.47404C20.7165 4.47404 20.5129 6.52469 20.5129 6.52469C20.5129 6.52469 26.2376 1.39792 36.8854 4.11909C47.5333 6.84026 45.7049 12.7557 45.0344 13.5837C44.3639 14.4117 43.7188 14.9641 43.7188 14.9641C43.7188 14.9641 44.4711 16.0072 44.2851 17.6507C44.0629 19.615 43.2376 21.5149 43.2376 21.5149L41.4157 22.2267C41.4157 22.2267 39.2516 21.008 38.6599 18.4002C38.0684 15.7924 38.3049 14.8066 38.3049 14.8066C38.3049 14.8066 36.5699 14.3715 35.2685 12.775C33.9671 11.1784 33.7699 10.1135 33.7699 10.1135C33.7699 10.1135 32.232 13.229 27.8939 14.491C23.5558 15.7531 20.1643 15.1616 20.1643 15.1616C20.1643 15.1616 20.2828 17.4884 19.5335 19.2235C18.7842 20.9586 17.2348 21.9299 17.2348 21.9299L15.3311 21.3063C15.3311 21.3063 12.8688 16.9349 13.7758 12.775C14.6826 8.615 18.508 7.70794 18.508 7.70794Z" fill="#2A0873"/>
<path d="M16.2607 11.8243C19.1266 12.8162 22.3242 12.8204 25.1925 11.8357C28.0609 10.851 30.5815 8.88361 32.2337 6.34033" stroke="#365AD8" stroke-width="0.4189" stroke-miterlimit="10" stroke-linecap="round"/>
<path d="M20.0322 8.59989C21.7014 9.11458 23.549 8.7655 25.1029 7.96764C26.6567 7.16949 27.9564 5.95608 29.1534 4.68402" stroke="#365AD8" stroke-width="0.4189" stroke-miterlimit="10" stroke-linecap="round"/>
<path d="M34.1035 6.24066C34.8843 8.13744 36.0648 9.89877 37.6776 11.1661C39.2903 12.4334 41.3563 13.176 43.4 13.0006" stroke="#365AD8" stroke-width="0.4189" stroke-miterlimit="10" stroke-linecap="round"/>
<path d="M37.8447 7.03235C38.8213 8.51833 40.4813 9.53485 42.2488 9.72922" stroke="#365AD8" stroke-width="0.4189" stroke-miterlimit="10" stroke-linecap="round"/>
<path d="M27.3584 33.0955C27.3448 33.2463 27.3311 33.3971 27.3174 33.5479" stroke="#365AD8" stroke-width="0.4189" stroke-miterlimit="10" stroke-linecap="round"/>
</g>
</svg>
